Land_normalized_pl13_filtered_grf
version=1
nRows=25
nColumns=37
inDegrees=yes
endheader
time		1_ground_force_vx		1_ground_force_vy		1_ground_force_vz		1_ground_force_px		1_ground_force_py		1_ground_force_pz		1_ground_torque_x		1_ground_torque_y		1_ground_torque_z		2_ground_force_vx		2_ground_force_vy		2_ground_force_vz		2_ground_force_px		2_ground_force_py		2_ground_force_pz		2_ground_torque_x		2_ground_torque_y		2_ground_torque_z		3_ground_force_vx		3_ground_force_vy		3_ground_force_vz		3_ground_force_px		3_ground_force_py		3_ground_force_pz		3_ground_torque_x		3_ground_torque_y		3_ground_torque_z		4_ground_force_vx		4_ground_force_vy		4_ground_force_vz		4_ground_force_px		4_ground_force_py		4_ground_force_pz		4_ground_torque_x		4_ground_torque_y		4_ground_torque_z		
1.796167		-64.534317		792.762260		105.222292		0.159745		0.000000		0.221135		-1.085409		13.333563		1.769756		82.764088		781.157290		134.464069		-0.129377		0.000000		0.232097		-0.144791		-1.366806		-0.235309		20.876418		2.002719		0.417075		0.375618		1.311078		1.914004		-0.112307		-0.010774		-0.002244		-18.571365		-0.161480		2.006012		-0.265559		1.309880		1.924976		0.018173		0.000158		-0.001963		
1.799146		-65.938398		807.171437		103.164753		0.160598		0.000000		0.222006		-1.089671		13.338982		1.704863		86.059160		781.747102		129.590302		-0.130386		0.000000		0.232838		-0.055402		-0.503450		-0.083488		20.998421		1.998435		0.475671		0.375641		1.311061		1.914010		-0.113108		-0.010765		-0.002562		-18.442519		-0.174436		1.927417		-0.265530		1.309875		1.924988		0.017943		0.000169		-0.001875		
1.802126		-66.501454		818.783488		101.894424		0.161291		0.000000		0.222728		-1.084574		13.353556		1.661800		88.687791		781.086560		125.944984		-0.131032		0.000000		0.233147		0.065061		0.572819		0.092343		21.105034		2.014537		0.515520		0.375677		1.311049		1.914013		-0.112972		-0.010784		-0.002760		-18.286424		-0.231935		1.839737		-0.265501		1.309875		1.925002		0.016567		0.000210		-0.001667		
1.805106		-66.196363		827.047883		101.468026		0.161829		0.000000		0.223302		-1.069131		13.357560		1.638799		90.667311		779.152816		124.137865		-0.131346		0.000000		0.233032		0.225901		1.941138		0.309267		21.199388		2.044843		0.515640		0.375721		1.311048		1.914012		-0.112362		-0.010838		-0.002733		-18.138112		-0.335649		1.751959		-0.265473		1.309881		1.925017		0.014051		0.000259		-0.001357		
1.808086		-65.080371		831.765582		101.841488		0.162218		0.000000		0.223713		-1.043594		13.337732		1.633073		91.846952		776.456652		124.108475		-0.131453		0.000000		0.232711		0.413305		3.493945		0.558480		21.285233		2.071916		0.475333		0.375771		1.311058		1.914009		-0.111727		-0.010875		-0.002495		-18.023304		-0.474021		1.679017		-0.265442		1.309896		1.925031		0.010753		0.000283		-0.001002		
1.811066		-63.250755		833.042243		102.907448		0.162459		0.000000		0.223929		-1.009305		13.293014		1.642113		91.831624		774.113565		124.777413		-0.131550		0.000000		0.232633		0.576528		4.859989		0.783371		21.358800		2.078985		0.412396		0.375821		1.311070		1.914002		-0.111422		-0.010845		-0.002151		-17.954155		-0.621697		1.634340		-0.265406		1.309916		1.925043		0.007224		0.000250		-0.000658		
1.814045		-60.814806		831.248469		104.535825		0.162555		0.000000		0.223931		-0.968083		13.232252		1.664057		90.136582		773.617007		124.006379		-0.131875		0.000000		0.233407		0.634483		5.445579		0.872897		21.408881		2.058368		0.352757		0.375867		1.311076		1.913991		-0.111655		-0.010735		-0.001839		-17.928391		-0.746937		1.619555		-0.265365		1.309937		1.925053		0.004004		0.000167		-0.000362		
1.817025		-57.888053		826.987299		106.578123		0.162529		0.000000		0.223766		-0.921896		13.170176		1.697309		86.542117		776.302113		119.067523		-0.132660		0.000000		0.235614		0.516268		4.630892		0.710306		21.423243		2.013725		0.319100		0.375902		1.311065		1.913971		-0.112409		-0.010566		-0.001675		-17.930958		-0.823232		1.619589		-0.265320		1.309957		1.925061		0.001535		0.000070		-0.000139		
1.820005		-54.605333		821.040307		108.852082		0.162445		0.000000		0.223578		-0.873275		13.130488		1.740818		81.476252		782.659822		107.666516		-0.134131		0.000000		0.239535		0.216357		2.078247		0.285915		21.397795		1.956283		0.323213		0.375925		1.311031		1.913939		-0.113395		-0.010367		-0.001713		-17.939670		-0.838454		1.608885		-0.265271		1.309973		1.925068		0.000180		0.000008		-0.000016		
1.822985		-51.125403		814.249372		111.150465		0.162390		0.000000		0.223577		-0.825315		13.144410		1.794300		76.168874		791.806194		89.258054		-0.136469		0.000000		0.244912		-0.190608		-1.981735		-0.223291		21.344478		1.897889		0.364118		0.375935		1.310970		1.913894		-0.114085		-0.010144		-0.001946		-17.933387		-0.797631		1.566588		-0.265221		1.309980		1.925075		0.000198		0.000009		-0.000018		
1.825965		-47.626777		807.362406		113.282284		0.162444		0.000000		0.223943		-0.780762		13.235405		1.857082		72.357839		801.418388		66.105038		-0.139614		0.000000		0.250853		-0.601378		-6.661122		-0.549183		21.290458		1.847371		0.429447		0.375937		1.310897		1.913843		-0.113868		-0.009880		-0.002297		-17.899652		-0.719635		1.492173		-0.265174		1.309981		1.925083		0.001623		0.000065		-0.000135		
1.828944		-44.299588		800.900728		115.117475		0.162629		0.000000		0.224707		-0.741046		13.397579		1.925703		71.522614		808.334955		43.314653		-0.143041		0.000000		0.256047		-0.943843		-10.667108		-0.571358		21.267061		1.812019		0.503142		0.375939		1.310823		1.913792		-0.112323		-0.009570		-0.002658		-17.836161		-0.630310		1.410347		-0.265127		1.309978		1.925092		0.004155		0.000146		-0.000328		
1.831924		-41.337492		795.126198		116.608563		0.162903		0.000000		0.225693		-0.706342		13.586528		1.992524		73.958920		809.704634		27.489095		-0.145814		0.000000		0.259222		-1.169700		-12.805709		-0.434694		21.295633		1.800272		0.571686		0.375947		1.310765		1.913750		-0.109472		-0.009255		-0.002939		-17.746253		-0.555410		1.359136		-0.265082		1.309973		1.925100		0.007171		0.000224		-0.000549		
1.834904		-38.917617		790.123295		117.784277		0.163170		0.000000		0.226566		-0.676451		13.733662		2.047289		78.276271		804.253258		24.232468		-0.147023		0.000000		0.259620		-1.212367		-12.456921		-0.375306		21.377151		1.821901		0.625148		0.375962		1.310731		1.913722		-0.105831		-0.009020		-0.003095		-17.635609		-0.513003		1.367593		-0.265038		1.309969		1.925108		0.009912		0.000288		-0.000769		
1.837884		-37.163942		785.963984		118.735477		0.163330		0.000000		0.226984		-0.651327		13.774645		2.080934		81.852362		792.909246		35.545610		-0.146328		0.000000		0.257253		-1.011351		-9.797805		-0.438848		21.490541		1.884344		0.652266		0.375988		1.310728		1.913714		-0.102211		-0.008962		-0.003102		-17.512623		-0.506125		1.438053		-0.264996		1.309966		1.925115		0.011798		0.000341		-0.000969		
1.840864		-36.103737		782.848430		119.598000		0.163327		0.000000		0.226761		-0.631049		13.683216		2.090423		82.152368		778.314367		58.498893		-0.144112		0.000000		0.252839		-0.608256		-5.762613		-0.432300		21.601486		1.986007		0.642420		0.376019		1.310750		1.913720		-0.099386		-0.009137		-0.002956		-17.388425		-0.521393		1.543563		-0.264956		1.309965		1.925122		0.012642		0.000379		-0.001122		
1.843843		-35.654092		781.126634		120.523763		0.163188		0.000000		0.225993		-0.615808		13.491405		2.081652		78.084854		763.591924		86.107937		-0.141134		0.000000		0.247550		-0.179002		-1.749206		-0.196444		21.677408		2.111441		0.590073		0.376048		1.310791		1.913738		-0.097812		-0.009527		-0.002662		-17.273292		-0.537583		1.639126		-0.264922		1.309965		1.925130		0.012596		0.000392		-0.001195		
1.846823		-35.671276		781.173919		121.615600		0.163013		0.000000		0.225019		-0.606190		13.275098		2.066707		70.510681		751.274293		110.188255		-0.138061		0.000000		0.242720		0.087468		0.933199		0.137205		21.699694		2.233812		0.502732		0.376072		1.310844		1.913762		-0.097541		-0.010041		-0.002260		-17.172394		-0.539528		1.683122		-0.264893		1.309966		1.925137		0.011940		0.000375		-0.001170		
1.849803		-36.035194		783.205536		122.852462		0.162927		0.000000		0.224264		-0.603084		13.107729		2.056058		61.697249		742.892057		124.778003		-0.135388		0.000000		0.239514		0.135553		1.631974		0.274088		21.667159		2.324152		0.402829		0.376085		1.310906		1.913791		-0.098280		-0.010542		-0.001827		-17.086189		-0.527500		1.657371		-0.264871		1.309967		1.925142		0.010916		0.000337		-0.001058		
1.852783		-36.685641		787.155731		124.082659		0.163019		0.000000		0.224043		-0.607115		13.026730		2.053458		54.186624		738.955470		128.322753		-0.133608		0.000000		0.238526		0.041148		0.559829		0.097231		21.594671		2.361417		0.320293		0.376089		1.310971		1.913824		-0.099545		-0.010885		-0.001477		-17.014704		-0.516094		1.575147		-0.264855		1.309968		1.925143		0.009678		0.000294		-0.000896		
1.855763		-37.574572		792.666188		125.137776		0.163309		0.000000		0.224435		-0.618107		13.039481		2.058536		49.734460		738.941933		123.574749		-0.133113		0.000000		0.239516		-0.096932		-1.441016		-0.240832		21.508844		2.337689		0.277959		0.376087		1.311038		1.913861		-0.100870		-0.010963		-0.001304		-16.960014		-0.524960		1.472579		-0.264843		1.309968		1.925139		0.008345		0.000258		-0.000725		
1.858742		-38.615609		799.151565		125.980176		0.163744		0.000000		0.225269		-0.634694		13.135017		2.070636		48.771490		741.427375		115.555680		-0.133853		0.000000		0.241569		-0.222666		-3.384899		-0.527425		21.439075		2.256684		0.278943		0.376082		1.311099		1.913898		-0.101947		-0.010731		-0.001326		-16.925113		-0.567472		1.388549		-0.264837		1.309969		1.925129		0.007015		0.000236		-0.000575		
1.861722		-39.719062		805.918340		126.729604		0.164224		0.000000		0.226228		-0.653957		13.269097		2.086548		50.474850		744.631967		108.944730		-0.135287		0.000000		0.243639		-0.312504		-4.609979		-0.674435		21.406553		2.130337		0.305697		0.376076		1.311149		1.913931		-0.102657		-0.010216		-0.001466		-16.914057		-0.643034		1.346856		-0.264836		1.309969		1.925113		0.005758		0.000219		-0.000458		
1.864702		-40.863660		812.319279		127.537261		0.164644		0.000000		0.226975		-0.672135		13.361234		2.097765		53.274532		747.152472		106.271278		-0.136731		0.000000		0.245035		-0.355156		-4.980914		-0.708460		21.417186		1.977730		0.329567		0.376070		1.311181		1.913957		-0.103032		-0.009514		-0.001586		-16.933058		-0.737354		1.349900		-0.264843		1.309968		1.925093		0.004628		0.000201		-0.000369		
1.867682		-42.080775		817.904358		128.460955		0.164937		0.000000		0.227298		-0.686993		13.352796		2.097205		55.561996		748.369919		107.554233		-0.137706		0.000000		0.245579		-0.354517		-4.775087		-0.686257		21.463228		1.824671		0.327182		0.376060		1.311191		1.913970		-0.103147		-0.008769		-0.001572		-16.987757		-0.829536		1.383428		-0.264860		1.309967		1.925073		0.003648		0.000178		-0.000297		
